<?xml version="1.0" encoding="utf-8"?>
<!-- Generator: Adobe Illustrator 21.0.0, SVG Export Plug-In . SVG Version: 6.00 Build 0)  -->
<svg version="1.1" id="Layer_1" xmlns="http://www.w3.org/2000/svg" xmlns:xlink="http://www.w3.org/1999/xlink" x="0px" y="0px"
	 viewBox="0 0 907.2 454" style="enable-background:new 0 0 907.2 454;" xml:space="preserve">
<style type="text/css">
	.st0{fill:#E7ECF0;}
	.st1{display:none;}
	.st2{display:inline;}
	.st3{fill:none;stroke:#E7ECF0;stroke-width:2;stroke-miterlimit:10;}
	.st4{fill:#2E3D49;}
</style>
<rect class="st0" width="907.2" height="454"/>
<title>article-placeholder</title>
<g id="Layer_2" class="st1">
	<g id="Layer_1-2" class="st2">
		<g id="Layer_2-2">
			<g id="Layer_1-2-2">
				<rect x="411.1" y="194" class="st3" width="85" height="66"/>
				<polygon class="st3" points="426.1,241 426.1,241 444.6,222.5 444.6,222.5 				"/>
				<polygon class="st3" points="466.9,246.1 466.9,246.1 443.4,222.6 443.4,222.6 				"/>
				<polygon class="st3" points="457.6,237.5 457.6,237.5 465.6,229.5 465.6,229.5 				"/>
				<polygon class="st3" points="481.4,246.6 481.4,246.6 464.4,229.6 464.4,229.6 				"/>
				<circle class="st0" cx="477.6" cy="214.5" r="3.5"/>
			</g>
		</g>
	</g>
</g>
<g>
	<path class="st4" d="M453.5,261.6c-15.6,0-31.2,0-46.7,0c-2.9,0-2.9,0-2.9-2.8c0-21.1,0-42.2,0-63.3c0-2.7,0.3-3,3.1-3
		c31,0,62.1,0,93.1,0c2.8,0,3.3,0.5,3.3,3.4c0,20.9,0,41.8,0,62.7c0,2.7-0.3,3.1-3.1,3.1C484.7,261.6,469.1,261.6,453.5,261.6z
		 M499.3,257.8c0-20.5,0-40.9,0-61.3c-30.6,0-61.1,0-91.5,0c0,20.5,0,40.8,0,61.3C438.4,257.8,468.8,257.8,499.3,257.8z"/>
	<path class="st4" d="M442,239.9c2.6-3.5,5.1-6.9,7.6-10.2c3.4-4.6,6.7-9.3,10.2-13.9c2.6-3.5,5.2-3.4,7.8,0.1
		c9.1,12.3,18.2,24.7,27.3,37c0.5,0.6,0.8,1.3,1.3,2.2c-28.6,0-56.9,0-85.6,0c2.2-3,4.2-5.9,6.2-8.7c3.5-4.8,7.2-9.6,10.6-14.5
		c2.6-3.8,6.1-3.7,8.4-0.2C437.8,234.5,439.9,237.1,442,239.9z"/>
	<path class="st4" d="M412.6,209.9c0-3.9,3.3-7.3,7.3-7.2c4.6,0.1,7,3,7.3,7.1c0.2,3.9-3.4,7.4-7.3,7.5
		C416.4,217.4,412.6,213.6,412.6,209.9z"/>
</g>
</svg>
