<svg xmlns="http://www.w3.org/2000/svg" width="512" height="512" viewBox="0 0 512 512" version="1.1">
	<path d="M 229.549 19.272 L 203.657 38.249 197.792 37.636 C 180.342 35.812, 157.858 29.619, 140.180 21.768 C 133.954 19.003, 128.521 17.136, 128.106 17.620 C 127.692 18.104, 124.237 22.550, 120.429 27.500 C 106.477 45.635, 88.226 62.553, 55.161 88 L 51.913 90.500 56.870 108.500 C 70.520 158.071, 73.385 173.561, 73.421 198 C 73.446 215.234, 73.253 217.218, 70.609 227 C 69.048 232.775, 67.134 240.425, 66.355 244 C 65.576 247.575, 63.356 257.025, 61.422 265 C 49.321 314.902, 46.259 338.130, 48.957 359.569 C 53.513 395.763, 71.335 422.569, 110.116 451.562 C 134.206 469.572, 144.233 473.168, 175.500 475.012 C 197.885 476.333, 203.110 477.466, 216.673 483.945 C 232.102 491.314, 254 506.311, 254 509.508 C 254 510.145, 254.675 510.667, 255.500 510.667 C 256.325 510.667, 257 510.105, 257 509.419 C 257 506.494, 276.016 493.259, 292.059 485.018 C 306.811 477.441, 308.539 477.005, 330 475.451 C 353.562 473.744, 363.637 471.320, 379.662 463.502 C 395.234 455.906, 413.973 443.180, 423 434.069 C 429.119 427.894, 432.098 423.646, 439.178 411 C 450.135 391.431, 452.078 386.944, 460.005 362.898 C 464.052 350.626, 464.927 334.756, 462.545 316.864 C 460.628 302.464, 458.248 292.866, 449.312 263.500 C 438.543 228.110, 438.706 229.125, 438.595 197 C 438.519 175.060, 438.851 167.478, 440.237 159.500 C 442.870 144.344, 447.258 127.342, 453.429 108.382 C 456.493 98.967, 459 90.844, 459 90.331 C 459 89.818, 451.688 83.579, 442.750 76.466 C 422.411 60.280, 400.752 38.801, 391.633 25.773 L 384.825 16.046 381.162 17.644 C 355.211 28.962, 343.947 32.572, 323.707 36.057 C 305.816 39.138, 311.959 42.100, 266.470 8.454 L 255.440 0.295 229.549 19.272 M 230.986 22.181 C 217.519 32.071, 206.356 40.559, 206.179 41.044 C 206.003 41.529, 208.635 50.605, 212.028 61.213 C 215.421 71.821, 219.586 84.888, 221.284 90.250 L 224.370 100 255.486 100 L 286.603 100 291.476 84.750 C 294.157 76.362, 298.296 63.488, 300.675 56.140 C 303.054 48.792, 305 42.265, 305 41.635 C 305 40.611, 298.521 35.653, 269.136 14.193 C 264.386 10.723, 259.369 7.056, 257.986 6.043 L 255.472 4.200 230.986 22.181 M 233.372 27.005 L 212.244 42.988 215.553 53.744 C 217.372 59.660, 220.935 71.245, 223.470 79.489 C 226.005 87.734, 228.444 94.844, 228.890 95.290 C 229.336 95.736, 241.324 95.966, 255.529 95.801 L 281.356 95.500 284.075 87 C 285.571 82.325, 288.891 71.750, 291.455 63.500 C 294.018 55.250, 296.507 47.291, 296.984 45.813 C 297.917 42.924, 300.034 44.726, 261 15.173 C 257.975 12.882, 255.275 11.012, 255 11.016 C 254.725 11.020, 244.992 18.215, 233.372 27.005 M 381 21.420 C 368.113 28.324, 340.375 36.678, 320.439 39.658 C 309.911 41.232, 309.087 41.518, 308.516 43.792 C 308.179 45.136, 308.120 46.454, 308.386 46.719 C 309.733 48.066, 342.169 40.988, 355.500 36.439 C 359.900 34.937, 367.775 31.719, 373 29.288 L 382.500 24.868 384.500 27.616 C 401.816 51.406, 410.746 60.615, 435.294 80 C 443.304 86.325, 450.124 92.124, 450.450 92.886 C 450.775 93.648, 449.046 100.173, 446.607 107.386 C 442.032 120.919, 437.108 138.999, 435.139 149.500 C 434.521 152.800, 433.507 158.200, 432.886 161.500 C 431.254 170.187, 430.587 210.562, 431.871 223 C 432.925 233.206, 434.772 240.589, 442.502 265.500 C 449.896 289.328, 453.239 304.147, 455.046 321.106 C 456.720 336.813, 455.292 348.029, 449.329 366 C 444.183 381.508, 441.041 388.389, 430.837 406.500 C 421.718 422.686, 414.387 430.378, 397.144 441.857 C 371.102 459.192, 357.302 464.228, 331 465.992 C 309.235 467.453, 305.448 468.384, 290.461 475.955 C 276.004 483.259, 258 496.027, 258 498.977 C 258 500.320, 257.464 500.673, 256 500.290 C 254.900 500.002, 253.998 499.257, 253.996 498.633 C 253.992 497.381, 245.529 490.367, 237 484.546 C 228.960 479.059, 208.362 469.399, 202 468.131 C 198.975 467.528, 188.625 466.556, 179 465.970 C 157.596 464.668, 150.117 463.099, 138.500 457.472 C 119.292 448.167, 87.917 421.129, 76.629 404.153 C 62.761 383.298, 57.582 365.754, 57.690 340 C 57.760 323.369, 59.689 309.193, 64.969 286.500 C 66.505 279.900, 69.635 266.400, 71.926 256.500 C 74.216 246.600, 76.777 236.169, 77.617 233.319 C 83.610 212.973, 83.388 185.169, 76.985 154 C 75.799 148.225, 72.114 132.925, 68.796 120 C 65.479 107.075, 62.555 95.564, 62.298 94.420 C 61.916 92.713, 64.219 90.562, 75.147 82.420 C 100.600 63.457, 114.807 49.818, 127.405 32.250 C 129.476 29.363, 131.526 27, 131.960 27 C 132.395 27, 136.081 28.518, 140.151 30.373 C 151.086 35.356, 160.970 38.744, 173.936 41.954 C 186.802 45.139, 201.676 47.657, 202.537 46.796 C 202.845 46.488, 202.823 45.144, 202.488 43.810 C 201.936 41.607, 201.076 41.267, 193.190 40.131 C 174.830 37.484, 153.661 31.441, 138.420 24.495 C 134.202 22.573, 130.433 21, 130.045 21 C 129.657 21, 127.804 23.137, 125.929 25.750 C 120.019 33.982, 103.543 52.218, 95.365 59.579 C 86.584 67.483, 75.379 76.618, 63.750 85.355 C 59.487 88.557, 56 91.701, 56 92.341 C 56 92.981, 57.353 98.228, 59.006 104.002 C 67.188 132.578, 73.940 162.526, 76.032 179.523 C 78.013 195.616, 76.889 216.043, 73.255 230 C 71.608 236.325, 69.313 245.550, 68.155 250.500 C 66.997 255.450, 64.703 265.125, 63.058 272 C 53.695 311.126, 51.644 324.312, 51.705 345 C 51.755 362.007, 52.605 367.765, 57.167 382 C 64.341 404.385, 82.953 427.638, 109.688 447.619 C 125.092 459.131, 132.664 463.736, 140.904 466.601 C 150.974 470.104, 156.433 470.962, 175.500 472.045 C 184.850 472.576, 194.975 473.485, 198 474.067 C 212.352 476.824, 236.445 489.572, 251.448 502.348 L 255.396 505.709 262.792 499.832 C 274.607 490.443, 295.457 478.785, 306.500 475.394 C 309.250 474.549, 320.050 473.231, 330.500 472.465 C 351.062 470.959, 359.727 469.157, 372.672 463.698 C 388.889 456.858, 415.270 439.180, 423.914 429.361 C 431.446 420.803, 446.788 392.170, 452.540 375.933 C 459.815 355.396, 460.262 353.039, 460.302 335 C 460.353 311.644, 458.580 303.396, 441.490 247.500 C 436.693 231.813, 435.072 218.740, 435.033 195.424 C 434.999 175.927, 436.257 163.182, 439.969 145.408 C 442.283 134.327, 448.809 111.557, 452.944 100.133 C 454.610 95.531, 455.756 91.415, 455.491 90.986 C 455.226 90.556, 449.494 85.792, 442.754 80.398 C 414.600 57.866, 403.696 47.146, 390.221 28.750 C 386.695 23.938, 383.741 20.018, 383.655 20.040 C 383.570 20.062, 382.375 20.683, 381 21.420 M 252.482 35.750 L 249.472 46.500 239.215 47 L 228.957 47.500 236.979 53.927 C 241.390 57.462, 245 60.667, 245 61.049 C 245 61.432, 243.681 66.183, 242.068 71.607 C 240.455 77.031, 239.292 81.626, 239.483 81.817 C 239.675 82.008, 243.253 79.356, 247.435 75.923 C 256.186 68.741, 255.577 68.701, 265.412 77.093 C 268.625 79.835, 271.450 81.883, 271.689 81.644 C 271.928 81.405, 270.765 76.553, 269.104 70.863 C 267.442 65.173, 266.402 60.246, 266.791 59.915 C 267.181 59.584, 270.841 56.656, 274.925 53.407 L 282.350 47.500 272.236 47.216 L 262.122 46.931 260.581 41.460 C 259.733 38.451, 258.343 33.516, 257.492 30.494 C 256.641 27.472, 255.842 25, 255.718 25 C 255.593 25, 254.137 29.837, 252.482 35.750 M 326.033 89.366 C 323.192 92.868, 319.772 96.319, 318.434 97.035 C 317.095 97.752, 316 98.827, 316 99.424 C 316 100.589, 310.409 102.835, 305.500 103.643 C 298.430 104.806, 293.024 107.845, 287.250 113.903 C 280.243 121.255, 280.085 122.828, 286.770 118.693 C 288.821 117.423, 292.975 115.121, 296 113.577 C 299.025 112.033, 303.525 109.335, 306 107.583 C 312.933 102.673, 313.937 102.467, 309 106.967 L 304.500 111.069 308.967 109.097 C 311.424 108.013, 313.949 106.423, 314.578 105.563 C 315.206 104.703, 316.043 104, 316.437 104 C 317.624 104, 323 98.242, 323 96.971 C 323 96.320, 324.259 94.148, 325.798 92.144 C 329.193 87.723, 332.201 83, 331.622 83 C 331.389 83, 328.874 85.865, 326.033 89.366 M 191 86.632 C 191 89.147, 190.813 89.238, 186.790 88.699 C 177.835 87.498, 173.630 90.694, 180.428 93.534 C 182.670 94.471, 183.968 95.751, 184.178 97.233 C 184.561 99.927, 203.159 112.880, 206.750 112.954 C 208.471 112.989, 209 113.588, 209 115.500 C 209 117.056, 209.567 118, 210.500 118 C 211.325 118, 212 118.622, 212 119.381 C 212 121.016, 217.272 125.208, 222.410 127.658 C 224.488 128.649, 226.302 130.355, 226.618 131.615 C 227.297 134.318, 232.055 136.454, 235.481 135.594 C 237.570 135.070, 238 134.367, 238 131.481 C 238 129.566, 237.576 128, 237.057 128 C 236.539 128, 232.674 124.625, 228.467 120.500 C 224.261 116.375, 220.436 113, 219.967 113 C 219.497 113, 218.469 112.080, 217.681 110.955 C 213.938 105.612, 198.630 90.004, 195.982 88.832 C 194.306 88.090, 193 86.743, 193 85.756 C 193 84.790, 192.550 84, 192 84 C 191.450 84, 191 85.184, 191 86.632 M 141.143 117.433 C 138.456 123.133, 137.436 130.752, 138.452 137.529 C 139.048 141.502, 139.376 142.043, 140.488 140.883 C 144.107 137.109, 145.968 124.084, 144.116 115.500 L 143.469 112.500 141.143 117.433 M 294.500 116.598 C 291.200 118.574, 287.571 121.048, 286.436 122.095 C 284.196 124.161, 282.477 124.656, 283.546 122.926 C 283.911 122.336, 283.281 122.432, 282.147 123.140 C 281.012 123.849, 279.288 125.907, 278.315 127.714 C 277.341 129.521, 276.205 131, 275.790 131 C 275.374 131, 275.946 129.376, 277.061 127.391 L 279.088 123.782 275.676 125.891 C 273.799 127.051, 271.405 128, 270.354 128 C 269.304 128, 267.452 128.695, 266.239 129.545 C 265.026 130.395, 261.762 131.359, 258.987 131.688 C 256.212 132.017, 253.703 132.671, 253.412 133.143 C 253.120 133.614, 251.733 134, 250.328 134 C 247.596 134, 236.148 140.825, 236.056 142.509 C 236.025 143.065, 235.083 144.091, 233.963 144.791 C 232.843 145.490, 231.504 147.174, 230.988 148.531 C 230.414 150.042, 229.258 151, 228.011 151 C 226.197 151, 222.357 152.643, 221 154 C 219.509 155.491, 215.685 157.009, 213.264 157.070 C 211.744 157.109, 209.600 157.527, 208.500 158 C 206.611 158.812, 206.628 158.863, 208.809 158.930 C 210.155 158.971, 210.847 159.438, 210.469 160.050 C 210.112 160.628, 211.886 163.308, 214.410 166.007 C 216.935 168.706, 219 171.384, 219 171.957 C 219 172.531, 219.563 173.014, 220.250 173.031 C 221.571 173.064, 227.271 180.283, 228.319 183.250 C 229.872 187.646, 233 182.033, 233 174.851 C 233 172.733, 233.450 171, 234 171 C 234.550 171, 235 170.381, 235 169.624 C 235 168.868, 236.088 165.788, 237.419 162.779 C 239.216 158.716, 240.635 156.979, 242.940 156.025 C 247.676 154.063, 247.644 152.862, 242.900 154.535 C 237.452 156.457, 233.193 159.135, 229.585 162.907 C 226.827 165.790, 220.448 168.781, 219.366 167.699 C 219.091 167.424, 220.359 166.706, 222.183 166.103 C 224.007 165.500, 227.362 163.303, 229.638 161.221 C 233.797 157.417, 237.513 155.252, 244 152.853 C 245.925 152.142, 251.004 148.286, 255.287 144.285 C 259.570 140.284, 264.745 136.128, 266.787 135.049 C 268.829 133.971, 269.923 133.069, 269.218 133.044 C 266.341 132.945, 261.053 136.145, 253.106 142.794 C 247.271 147.676, 243.080 150.330, 239.360 151.500 C 234.378 153.067, 231.149 154.877, 224.253 159.968 C 221.334 162.123, 214.595 164.465, 215.492 163.013 C 215.784 162.540, 217.315 161.870, 218.894 161.523 C 220.473 161.176, 223.506 159.408, 225.633 157.593 C 230.286 153.623, 234.095 151.588, 239.683 150.084 C 242.377 149.360, 247.006 146.348, 252.683 141.627 C 261.929 133.938, 269.839 130.241, 274.527 131.417 C 276.568 131.930, 277.364 131.384, 279.491 128.014 C 282.812 122.753, 283.811 122.830, 280.825 128.116 C 278.793 131.713, 277.683 132.497, 272.017 134.332 C 266.691 136.058, 264.282 137.640, 258.517 143.200 C 251.502 149.965, 251.501 149.967, 255 149.343 C 256.925 149, 258.950 148.394, 259.500 147.998 C 260.050 147.602, 262.195 147.017, 264.268 146.699 C 271.571 145.577, 278.051 140.089, 287.459 127.058 C 288.031 126.265, 291.336 122.777, 294.802 119.308 C 298.269 115.839, 300.969 113.001, 300.802 113.003 C 300.636 113.004, 297.800 114.622, 294.500 116.598 M 158.595 120.527 C 154.350 122.741, 151.757 126.533, 149.552 133.750 C 148.948 135.728, 149.220 136, 151.798 136 C 155.889 136, 159.127 133.116, 162.827 126.174 C 164.572 122.899, 166 119.946, 166 119.610 C 166 118.456, 161.496 119.014, 158.595 120.527 M 127.764 132.632 C 125.258 138.895, 124.684 145.227, 126.062 151.388 C 126.753 154.475, 127.645 157, 128.045 157 C 128.445 157, 129.559 155.341, 130.521 153.314 C 131.924 150.358, 132.157 148.029, 131.699 141.564 C 131.384 137.129, 130.725 132.418, 130.234 131.095 C 129.370 128.767, 129.291 128.816, 127.764 132.632 M 143.195 143.605 L 139.590 147.210 142.045 148.570 C 146.089 150.809, 151.875 150.333, 155.656 147.449 C 157.495 146.046, 159 144.560, 159 144.147 C 159 143.318, 150.296 139.987, 148.150 139.995 C 147.407 139.998, 145.178 141.622, 143.195 143.605 M 114.416 152.500 C 112.909 159.605, 113.534 169.190, 115.788 173.531 L 117.848 177.500 119.424 173.782 C 120.291 171.737, 120.995 169.037, 120.988 167.782 C 120.973 164.937, 118.753 156.642, 116.764 152 L 115.264 148.500 114.416 152.500 M 257.684 153.440 C 256.118 154.628, 256.049 155.108, 257.184 156.936 C 257.908 158.101, 260.372 159.963, 262.661 161.073 C 264.949 162.184, 267.086 163.782, 267.410 164.626 C 267.848 165.768, 268.786 165.986, 271.087 165.481 C 273.987 164.844, 274.107 164.931, 273.053 166.901 C 271.863 169.124, 273.123 173, 275.035 173 C 275.566 173, 276.937 173.937, 278.081 175.081 C 280.064 177.064, 280.254 177.080, 282.081 175.426 C 285.860 172.007, 283.850 165.753, 278.544 164.422 C 276.006 163.785, 272 160.778, 272 159.511 C 272 158.371, 268.448 155, 267.246 155 C 266.526 155, 265.678 154.325, 265.362 153.500 C 264.646 151.634, 260.113 151.599, 257.684 153.440 M 136.957 154.179 C 134.757 154.914, 130.177 160.628, 131.153 161.421 C 131.344 161.576, 132.890 162.171, 134.589 162.744 C 138.839 164.175, 142.121 163.349, 146.487 159.750 C 149.376 157.368, 149.881 156.513, 148.763 155.887 C 145.890 154.280, 139.446 153.347, 136.957 154.179 M 128.649 169.230 C 126.732 169.905, 125.191 171.588, 123.949 174.364 C 122.120 178.449, 122.122 178.501, 124.147 179.250 C 128.270 180.775, 135.559 176.064, 139.232 169.500 C 139.986 168.151, 132.270 167.954, 128.649 169.230 M 105.483 174.354 C 104.444 181.154, 105.448 188.998, 107.996 193.991 C 110.928 199.739, 112.519 198.024, 112.441 189.200 C 112.394 183.872, 111.752 181.169, 109.303 176 L 106.225 169.500 105.483 174.354 M 124.094 185.306 C 120.086 186.711, 117.282 190.178, 116.364 194.864 C 115.738 198.056, 115.827 198.192, 118.102 197.506 C 123.189 195.973, 125.509 194.359, 128.173 190.500 C 132.633 184.038, 131.572 182.686, 124.094 185.306 M 100.021 197.572 C 100 205.649, 101.669 212.628, 104.529 216.427 C 106.597 219.174, 107.206 217.985, 107.676 210.286 C 108.069 203.843, 107.887 203.146, 104.066 196.500 L 100.041 189.500 100.021 197.572 M 120.797 201.907 C 115.990 204.963, 112.861 209.643, 111.543 215.750 C 110.694 219.683, 111.336 219.738, 116.495 216.172 C 119.107 214.366, 121.468 211.434, 123.317 207.699 C 127.335 199.581, 126.711 198.148, 120.797 201.907 M 96.519 216.912 C 95.569 221.240, 97.793 231.894, 100.687 236.874 C 103.865 242.342, 104.963 241.088, 104.985 231.969 C 104.998 226.196, 104.584 224.773, 101.423 219.719 C 99.456 216.573, 97.691 214, 97.502 214 C 97.313 214, 96.871 215.310, 96.519 216.912 M 117.212 222.654 C 111.852 227.123, 108.785 232.917, 109.194 237.803 L 109.500 241.465 113.707 237.655 C 117.982 233.783, 122.414 224.590, 121.798 220.874 C 121.545 219.349, 120.853 219.618, 117.212 222.654 M 115.388 244 C 109.623 250.310, 108.865 252.182, 109.203 259.272 L 109.500 265.500 113.199 260.500 C 116.898 255.499, 120.504 245.161, 119.845 241.446 C 119.554 239.803, 118.860 240.201, 115.388 244 M 93 245.266 C 93 252.833, 96.175 261.068, 100.584 264.940 C 102.501 266.623, 104.291 268, 104.563 268 C 104.834 268, 104.771 264.962, 104.424 261.250 C 103.667 253.169, 101.254 247.608, 96.511 243.011 L 93 239.608 93 245.266 M 114.741 267.673 C 110.908 274.968, 110.251 279.419, 111.961 286.500 C 112.682 289.482, 112.703 289.464, 115.555 283.500 C 117.548 279.330, 118.543 275.489, 118.816 270.909 C 119.452 260.207, 118.897 259.765, 114.741 267.673 M 92.651 273.762 C 93.521 280.006, 99.082 290.250, 102.726 292.322 C 107.995 295.318, 108.879 294.469, 107.517 287.724 C 106.094 280.671, 103.835 277.502, 97.215 273.273 L 92.130 270.024 92.651 273.762 M 189.500 272.691 C 183.308 273.240, 166.790 275.877, 166.267 276.400 C 166.010 276.657, 167.607 283.535, 169.817 291.684 C 172.027 299.833, 175.930 314.375, 178.490 324 C 181.050 333.625, 183.468 342.567, 183.863 343.872 L 184.581 346.244 218.291 346.372 L 252 346.500 252 342.322 L 252 338.144 246.250 337.322 C 237.368 336.052, 203.454 336.440, 195.185 337.906 C 188.619 339.070, 185.744 338.923, 187.171 337.496 C 189.726 334.940, 236.360 333.220, 247.750 335.262 L 252 336.024 252 329.980 C 252 326.061, 251.561 323.774, 250.750 323.472 C 250.063 323.216, 244.100 322.621, 237.500 322.148 C 224.302 321.204, 204.316 322.220, 191.065 324.508 C 186.426 325.309, 182.406 325.740, 182.132 325.465 C 180.305 323.638, 189.111 321.902, 210.500 319.874 C 221.717 318.810, 234.425 319.072, 246.750 320.619 L 252 321.279 252 316.248 C 252 310.296, 252.727 310.629, 236 308.927 C 222.928 307.597, 198.953 308.326, 186.500 310.431 C 182.019 311.189, 178.097 311.406, 177.583 310.925 C 176.250 309.676, 178.075 309.223, 191.301 307.520 C 205.258 305.722, 229.767 305.642, 242.750 307.350 L 252 308.568 252 303.343 C 252 300.469, 251.611 297.878, 251.136 297.584 C 249.087 296.318, 230.296 294.861, 216 294.861 C 202.066 294.860, 193.369 295.498, 178.750 297.592 C 171.605 298.615, 172.916 296.545, 180.271 295.190 C 194.868 292.501, 215.393 291.552, 231.072 292.842 C 239.377 293.525, 247.483 294.347, 249.086 294.667 C 251.962 295.242, 252 295.191, 252 290.715 L 252 286.181 244.750 284.847 C 233.804 282.832, 193.106 283.114, 181.565 285.284 C 172.836 286.926, 170.678 286.876, 172.567 285.078 C 176.966 280.887, 240.285 279.718, 250.501 283.639 C 251.679 284.091, 252 283.357, 252 280.210 L 252 276.205 245.258 275.031 C 229.322 272.256, 205.625 271.261, 189.500 272.691 M 278.500 273.037 C 274.650 273.458, 268.462 274.343, 264.750 275.004 L 258 276.205 258 280.122 C 258 283.667, 258.213 283.990, 260.250 283.529 C 266.140 282.195, 280.543 281, 290.724 281 C 296.926 281, 302 280.715, 302 280.366 C 302 280.017, 301.479 277.992, 300.842 275.866 L 299.683 272 292.592 272.136 C 288.691 272.210, 282.350 272.616, 278.500 273.037 M 315.241 276.966 C 312.009 280.731, 312.001 280.767, 314.241 281.367 C 315.484 281.700, 317.719 281.979, 319.209 281.986 C 323.550 282.008, 336.577 284.121, 338.073 285.045 C 340.807 286.735, 338.242 286.884, 329.461 285.546 C 312.184 282.913, 309.198 282.879, 307.506 285.295 C 306.678 286.478, 306 288.695, 306 290.223 C 306 292.859, 306.235 293, 310.622 293 C 315.390 293, 336.160 295.826, 336.911 296.577 C 338.305 297.972, 335.005 298.194, 328.244 297.159 C 323.985 296.508, 316.900 295.712, 312.500 295.392 L 304.500 294.809 302.170 298.991 C 299.469 303.840, 298.434 303.708, 299.820 298.690 C 300.731 295.389, 300.637 295.163, 298.143 294.674 C 295.164 294.089, 269.892 295.603, 263 296.779 L 258.500 297.547 258.204 303.129 L 257.909 308.712 263.704 307.645 C 266.926 307.051, 280.382 306.628, 294 306.690 C 319.414 306.807, 331.905 308.160, 332.803 310.891 C 333.145 311.930, 332.629 312.124, 330.767 311.656 C 318.732 308.636, 290.791 307.281, 274.500 308.929 C 257.126 310.686, 258 310.298, 258 316.248 L 258 321.279 263.250 320.642 C 276.670 319.016, 288.681 318.798, 300.651 319.964 C 314.780 321.339, 327.698 323.365, 328.694 324.360 C 330.266 325.933, 327.602 325.993, 319.366 324.573 C 305.887 322.249, 286.282 321.249, 272.702 322.192 C 265.991 322.659, 259.938 323.242, 259.250 323.489 C 258.438 323.780, 258 326.051, 258 329.976 L 258 336.014 265.250 335.257 C 276.786 334.053, 310.694 334.453, 318.750 335.889 C 326.855 337.333, 329.064 339.715, 321.250 338.585 C 302.482 335.869, 287.336 335.386, 270.948 336.981 C 258.456 338.197, 258 338.404, 258 342.857 L 258 346.500 292.044 346.500 L 326.088 346.500 326.664 344 C 326.981 342.625, 328.714 336.100, 330.515 329.500 C 332.316 322.900, 335.450 311.200, 337.480 303.500 C 339.510 295.800, 342.016 286.596, 343.049 283.047 C 344.082 279.498, 344.828 276.495, 344.707 276.373 C 344.038 275.704, 325.887 273.019, 322.500 273.088 C 319.157 273.156, 317.965 273.793, 315.241 276.966 M 273.426 284.018 C 269.535 284.429, 264.472 285.082, 262.176 285.470 C 258.012 286.174, 258 286.189, 258 290.588 C 258 293.015, 258.113 294.999, 258.250 294.998 C 258.387 294.997, 264.800 294.327, 272.500 293.509 C 280.200 292.691, 289.931 292.017, 294.125 292.011 L 301.750 292 302.375 288.875 C 303.591 282.793, 303.954 282.988, 291.750 283.136 C 285.563 283.210, 277.317 283.608, 273.426 284.018 M 120.100 284.014 C 120.045 284.297, 119.095 286.997, 117.989 290.014 C 116.882 293.031, 115.913 297.082, 115.834 299.016 C 115.692 302.496, 117.549 309.741, 118.986 311.315 C 121.233 313.775, 122.956 292.109, 121 286 C 120.560 284.625, 120.155 283.731, 120.100 284.014 M 96.022 304.331 C 96.074 307.188, 101.998 316.707, 104.995 318.750 C 108.377 321.055, 114.400 321.779, 115.493 320.012 C 116.304 318.699, 112.804 311.078, 110.096 308.262 C 108.913 307.031, 106.720 305.750, 105.222 305.415 C 103.725 305.080, 101.037 304.436, 99.250 303.984 C 96.965 303.405, 96.006 303.508, 96.022 304.331 M 125.511 305.552 C 125.166 307.173, 124.461 310.387, 123.942 312.693 C 122.509 319.072, 122.796 322.571, 125.094 326.720 C 128.416 332.716, 128.775 332.614, 129.542 325.456 C 130.634 315.258, 127.128 297.945, 125.511 305.552 M 133.556 318.909 C 133.160 319.551, 132.583 324.298, 132.275 329.458 C 131.734 338.533, 131.810 338.990, 134.601 343.402 C 136.933 347.088, 137.618 347.631, 138.173 346.232 C 139.406 343.121, 139.033 332.547, 137.481 326.586 C 135.600 319.365, 134.547 317.306, 133.556 318.909 M 104 327.550 C 104 329.198, 107.683 334.983, 110.813 338.250 C 113.823 341.391, 115.073 342, 118.512 342 C 120.770 342, 123.392 341.434, 124.338 340.742 C 125.932 339.577, 125.834 339.130, 123.015 334.685 C 119.532 329.193, 115.400 327, 108.532 327 C 106.039 327, 104 327.247, 104 327.550 M 143.237 342.335 L 143.700 355.170 147.850 359.320 L 152 363.471 152 356.945 C 152 349.405, 150.001 340.865, 146.944 335.349 C 143.014 328.256, 142.747 328.759, 143.237 342.335 M 117.250 349.839 C 114.912 350.719, 113 351.926, 113 352.523 C 113 353.896, 118.742 359.370, 121.872 360.981 C 124.893 362.535, 129.083 361.695, 133.590 358.633 L 137.134 356.225 133.222 352.112 C 129.869 348.588, 128.751 348.017, 125.405 348.120 C 123.257 348.186, 119.588 348.960, 117.250 349.839 M 201.379 364.437 C 199.663 365.184, 196.968 367.487, 195.391 369.555 C 192.980 372.715, 192.468 374.444, 192.176 380.407 C 191.876 386.548, 192.146 387.967, 194.188 390.976 C 197.713 396.170, 202.501 399, 207.762 399 C 216.741 399, 223.563 392.511, 224.694 382.894 C 225.259 378.094, 225.158 377.641, 223.776 378.780 C 222.921 379.484, 221.734 381.999, 221.138 384.367 C 217.866 397.360, 201.445 399.292, 196.362 387.282 C 193.138 379.665, 195.976 371.327, 203.020 367.716 C 208.676 364.818, 217.849 367.799, 219.526 373.081 C 220.232 375.307, 222.335 375.183, 222.781 372.888 C 223.126 371.112, 217.401 365.103, 214.208 363.889 C 210.848 362.612, 204.998 362.861, 201.379 364.437 M 130.750 367.064 C 127.588 368.696, 125 370.247, 125 370.510 C 125 370.772, 126.868 372.340, 129.150 373.994 C 134.789 378.078, 140.784 378.130, 146.788 374.146 L 151.076 371.301 147.035 367.651 C 142.003 363.105, 138.655 362.984, 130.750 367.064 M 135.038 401.489 C 137.217 407.808, 139 413.433, 139 413.989 C 139 414.612, 134.541 415, 127.378 415 C 113.573 415, 113.537 414.644, 128.425 425.416 C 146.335 438.375, 172.865 453.052, 174.117 450.694 C 174.466 450.037, 175.046 447.453, 175.407 444.952 L 176.062 440.403 166.281 435.764 C 151.418 428.715, 152.212 429.884, 155.510 419.914 C 157.041 415.286, 158.478 410.995, 158.704 410.379 C 158.930 409.762, 157.177 408.122, 154.807 406.733 C 152.438 405.345, 146.318 401.012, 141.206 397.104 C 136.095 393.197, 131.725 390, 131.495 390 C 131.265 390, 132.859 395.170, 135.038 401.489 M 369.405 398.907 C 363.853 403.083, 358.044 407.418, 356.496 408.540 L 353.681 410.581 356.850 420.029 L 360.018 429.478 357.759 431.195 C 356.517 432.139, 351.090 435.224, 345.699 438.048 L 335.898 443.185 336.199 447.842 C 336.477 452.148, 336.688 452.479, 338.991 452.219 C 344.623 451.584, 374.655 433.639, 389.385 422.107 L 395.269 417.500 383.635 417.218 C 375.303 417.017, 372.002 416.591, 372.009 415.718 C 372.013 415.048, 373.827 409.376, 376.038 403.113 C 378.249 396.850, 379.933 391.633, 379.779 391.520 C 379.626 391.407, 374.957 394.731, 369.405 398.907 M 166.456 398.287 C 164.984 402.231, 157 426.526, 157 427.062 C 157 428.249, 178.595 437.853, 190.471 441.948 C 214.654 450.287, 230.585 453.115, 256.924 453.747 C 289.330 454.524, 311.503 450.452, 336.313 439.167 C 341.538 436.791, 353.047 430.458, 355.810 428.439 C 355.981 428.314, 353.839 421.253, 351.049 412.747 L 345.978 397.282 333.239 403.613 C 318.857 410.762, 303.946 415.926, 288.207 419.209 C 279.347 421.058, 274.223 421.448, 258.500 421.471 C 228.485 421.517, 207.619 416.583, 178.204 402.487 C 170.580 398.834, 166.762 397.469, 166.456 398.287 M 184.823 423.193 C 182.075 435.860, 182.183 436.948, 186.189 436.985 C 187.428 436.996, 188.058 435.799, 188.554 432.488 C 188.926 430.006, 189.587 427.755, 190.022 427.486 C 190.458 427.217, 193.331 427.960, 196.407 429.137 C 202.376 431.422, 202.576 431.814, 201.067 438.313 C 200.261 441.788, 200.396 442.223, 202.595 443.225 C 203.923 443.830, 205.168 444.139, 205.363 443.912 C 205.559 443.686, 206.927 438.139, 208.405 431.587 C 210.554 422.056, 210.832 419.507, 209.795 418.838 C 207.344 417.257, 205.570 418.522, 204.653 422.507 C 204.148 424.703, 203.655 426.602, 203.558 426.726 C 203.264 427.101, 192.561 422.907, 191.709 422.083 C 191.274 421.663, 191.361 419.346, 191.903 416.936 C 193.039 411.880, 193.202 412.340, 189.992 411.534 C 187.520 410.914, 187.456 411.060, 184.823 423.193 M 322.368 411.988 C 320.210 412.859, 318.944 416.708, 317.431 427 C 317.067 429.475, 316.549 431.870, 316.280 432.323 C 316.011 432.776, 313.334 429.739, 310.330 425.573 C 307.326 421.408, 304.740 418, 304.583 418 C 304.427 418, 302.847 418.506, 301.072 419.125 C 298.316 420.085, 297.936 420.607, 298.462 422.704 C 298.801 424.054, 299.967 429.480, 301.054 434.761 C 302.140 440.042, 303.214 444.547, 303.439 444.773 C 303.665 444.998, 304.783 444.886, 305.925 444.524 C 308.334 443.759, 308.402 442.701, 306.589 434.250 C 305.851 430.813, 305.330 428, 305.431 428 C 305.532 428, 307.762 430.925, 310.387 434.500 C 317.216 443.801, 319.153 443.304, 321.090 431.750 C 321.805 427.488, 322.702 424, 323.084 424 C 323.465 424, 324.068 425.688, 324.423 427.750 C 325.923 436.464, 326.137 437, 328.111 437 C 329.184 437, 330.319 436.331, 330.633 435.514 C 331.442 433.405, 326.757 410.987, 325.522 411.063 C 324.960 411.098, 323.541 411.514, 322.368 411.988 M 222.548 432.750 C 222.194 438.663, 221.692 444.512, 221.433 445.750 C 221.117 447.258, 221.436 448, 222.399 448 C 223.190 448, 224.548 448.273, 225.418 448.607 C 226.676 449.090, 227 448.492, 227 445.689 C 227 439.309, 227.501 438.894, 234.363 439.588 C 239.709 440.128, 240.854 439.928, 243.250 438.031 C 247.823 434.412, 246.745 427.339, 241.288 425.162 C 238.794 424.167, 227.301 422.027, 224.346 422.008 C 223.585 422.003, 222.973 425.660, 222.548 432.750 M 279.143 426.250 C 278.699 427.488, 277.290 431.425, 276.012 435 C 274.735 438.575, 273.401 441.836, 273.048 442.247 C 272.695 442.657, 270.663 438.922, 268.532 433.946 L 264.657 424.900 261.079 425.200 C 257.896 425.467, 257.507 425.804, 257.563 428.250 C 257.597 429.762, 257.709 435.500, 257.813 441 L 258 451 260.905 451 L 263.811 451 263.345 442.750 L 262.880 434.500 266.913 442.823 C 270.304 449.820, 271.289 451.095, 273.096 450.823 C 274.759 450.573, 275.806 448.916, 277.726 443.500 C 281.242 433.582, 282 433.381, 282 442.366 L 282 450.133 284.750 449.816 C 286.868 449.573, 287.484 448.983, 287.429 447.250 C 287.389 446.012, 287.277 440.275, 287.179 434.500 L 287 424 283.475 424 C 280.726 424, 279.773 424.495, 279.143 426.250 M 228.558 427.775 C 227.334 429, 228.079 433.816, 229.582 434.393 C 232.789 435.624, 239.769 435.045, 240.362 433.500 C 241.381 430.843, 239.896 429.069, 236.153 428.472 C 234.144 428.152, 231.739 427.739, 230.808 427.554 C 229.877 427.369, 228.865 427.469, 228.558 427.775" stroke="none" fill="black" fill-rule="evenodd"/>
</svg>