<?xml version="1.0" standalone="no"?>
<!DOCTYPE svg PUBLIC "-//W3C//DTD SVG 20010904//EN"
 "http://www.w3.org/TR/2001/REC-SVG-20010904/DTD/svg10.dtd">
<svg version="1.0" xmlns="http://www.w3.org/2000/svg"
 width="512.000000pt" height="512.000000pt" viewBox="0 0 512.000000 512.000000"
 preserveAspectRatio="xMidYMid meet">
<metadata>
Created by potrace 1.11, written by Peter Selinger 2001-2013
</metadata>
<g transform="translate(0.000000,512.000000) scale(0.100000,-0.100000)"
fill="#000000" stroke="none">
<path d="M2514 5088 c-15 -13 -98 -74 -184 -136 -85 -62 -162 -118 -170 -125
-8 -7 -39 -29 -69 -51 -52 -37 -57 -38 -115 -33 -172 16 -420 86 -595 168 -46
21 -87 39 -90 39 -3 0 -28 -30 -56 -68 -27 -37 -60 -78 -72 -92 -12 -14 -31
-36 -43 -50 -89 -104 -231 -236 -370 -345 -41 -32 -77 -62 -80 -65 -3 -3 -37
-30 -76 -59 -82 -62 -79 -35 -24 -236 33 -121 100 -378 106 -410 2 -11 6 -31
9 -45 44 -204 48 -247 49 -440 0 -183 -2 -201 -28 -295 -15 -55 -30 -107 -31
-115 -29 -127 -60 -260 -85 -365 -30 -126 -66 -294 -74 -345 -3 -14 -8 -45
-12 -70 -13 -84 -15 -105 -18 -240 -3 -119 4 -207 27 -323 24 -121 128 -329
222 -447 62 -78 239 -239 363 -333 156 -117 239 -164 347 -195 98 -29 126 -32
400 -47 155 -8 194 -19 355 -100 78 -38 198 -110 210 -124 3 -3 21 -18 40 -32
19 -15 53 -43 74 -62 39 -36 40 -36 50 -15 33 65 387 277 522 313 32 9 113 18
179 20 66 3 137 7 158 11 20 3 47 7 60 9 91 11 290 79 328 111 8 8 19 14 23
14 21 0 202 117 310 200 56 43 129 118 154 159 59 94 183 320 194 352 6 19 14
39 18 44 5 6 15 33 23 60 9 28 29 89 46 137 36 104 46 170 46 308 0 99 -11
235 -19 249 -3 4 -7 24 -10 46 -11 68 -115 449 -130 474 -3 4 -14 43 -26 86
-12 44 -29 103 -36 130 -16 56 -20 82 -30 210 -21 264 0 519 61 765 8 36 18
72 20 80 2 8 9 31 14 50 23 83 41 141 75 240 20 57 36 109 36 115 0 5 -28 32
-63 60 -368 293 -499 420 -627 609 -56 84 -48 82 -142 36 -63 -31 -203 -84
-283 -108 -60 -18 -134 -34 -320 -68 -66 -12 -98 -3 -155 43 -8 7 -49 37 -90
67 -214 157 -249 183 -296 218 -28 21 -55 38 -61 38 -6 0 -23 -10 -39 -22z"/>
</g>
</svg>
